<svg width="32" height="32" viewBox="0 0 32 32" fill="none" xmlns="http://www.w3.org/2000/svg">
<path fill-rule="evenodd" clip-rule="evenodd" d="M3.856 9.2229L11.112 15.4239L3.732 22.6659C3.518 22.1749 3.4 21.6319 3.4 21.0619C3.4 20.5379 2.974 20.1129 2.45 20.1129C1.926 20.1129 1.5 20.5379 1.5 21.0629C1.5 24.3389 4.161 26.9999 7.437 26.9999H24.062C27.339 26.9999 30 24.3389 30 21.0619V11.0879C30 7.8109 27.339 5.1499 24.062 5.1499C24.063 5.1499 7.437 5.1499 7.437 5.1499C4.161 5.1499 1.5 7.8109 1.5 11.0879C1.5 11.6119 1.926 12.0379 2.45 12.0379C2.974 12.0379 3.4 11.6119 3.4 11.0879C3.4 10.4149 3.565 9.7809 3.856 9.2229ZM12.2 16.3529L4.538 23.8709C5.272 24.6289 6.3 25.0999 7.437 25.0999C7.437 25.0999 24.063 25.0999 24.062 25.0999C25.2 25.0999 26.228 24.6289 26.962 23.8709L19.3 16.3529L16.213 18.9919C15.946 19.2189 15.554 19.2189 15.287 18.9919L12.2 16.3529ZM27.644 9.2229L20.388 15.4239L27.768 22.6659C27.982 22.1749 28.1 21.6319 28.1 21.0629C28.1 21.0629 28.1 11.0869 28.1 11.0879C28.1 10.4149 27.935 9.7809 27.644 9.2229ZM1.5 13.6999V18.4499C1.5 18.9739 1.926 19.3999 2.45 19.3999C2.974 19.3999 3.4 18.9739 3.4 18.4499V13.6999C3.4 13.1759 2.974 12.7499 2.45 12.7499C1.926 12.7499 1.5 13.1759 1.5 13.6999ZM26.771 8.0939C26.055 7.4459 25.104 7.0499 24.062 7.0499H7.437C6.396 7.0499 5.445 7.4459 4.729 8.0939L15.75 17.5129L26.771 8.0939Z" fill="url(#paint0_linear_237_556)"/>
<defs>
<linearGradient id="paint0_linear_237_556" x1="2" y1="16" x2="30" y2="16" gradientUnits="userSpaceOnUse">
<stop offset="0.0625" stop-color="#006DB6"/>
<stop offset="0.229167" stop-color="#FF002E"/>
<stop offset="0.515625" stop-color="#FF0000"/>
<stop offset="0.776042" stop-color="#FFE500"/>
<stop offset="0.953125" stop-color="#2D860E"/>
</linearGradient>
</defs>
</svg>
