<svg width="32" height="32" viewBox="0 0 32 32" fill="none" xmlns="http://www.w3.org/2000/svg">
<path fill-rule="evenodd" clip-rule="evenodd" d="M11.797 11.6039H9.736C8.651 11.6039 7.771 12.4849 7.771 13.5689V16.0749C7.771 17.1589 8.651 18.0399 9.736 18.0399H11.78V20.8119C11.78 21.2049 12.099 21.5239 12.492 21.5239C12.885 21.5239 13.204 21.2049 13.204 20.8119V17.3279C13.204 16.9339 12.885 16.6159 12.492 16.6159H9.736C9.437 16.6159 9.195 16.3729 9.195 16.0749V13.5689C9.195 13.2709 9.437 13.0279 9.736 13.0279H12.386C12.478 13.0479 12.527 13.0279 12.527 13.0279C12.92 13.0279 13.239 12.7089 13.239 12.3159C13.239 12.2859 13.237 12.2569 13.233 12.2279C13.23 12.1659 13.191 11.1929 13.186 4.3459C13.186 4.3449 13.186 4.3449 13.186 4.3449C13.186 4.1189 13.276 3.9009 13.436 3.7409C13.597 3.5799 13.815 3.4899 14.041 3.4909L22.139 3.5059C22.507 3.5059 22.805 3.8049 22.805 4.1729V6.9289C22.805 7.2969 22.507 7.5949 22.139 7.5949H18.506C18.113 7.5949 17.794 7.9139 17.794 8.3069V12.3159C17.794 12.7089 18.113 13.0279 18.506 13.0279H22.264C22.563 13.0279 22.805 13.2709 22.805 13.5689V16.0749C22.805 16.3729 22.563 16.6159 22.264 16.6159H18.506C18.113 16.6159 17.794 16.9339 17.794 17.3279V27.8519C17.794 28.2879 17.439 28.6429 17.002 28.6429H13.995C13.559 28.6429 13.204 28.2879 13.204 27.8519C13.204 27.4589 12.885 27.1399 12.492 27.1399C12.099 27.1399 11.78 27.4589 11.78 27.8519C11.78 29.0739 12.773 30.0669 13.995 30.0669H17.002C18.225 30.0669 19.218 29.0739 19.218 27.8519V18.0399H22.264C23.349 18.0399 24.229 17.1589 24.229 16.0749V13.5689C24.229 12.4849 23.349 11.6039 22.264 11.6039H19.218V9.0189H22.139C23.293 9.0189 24.229 8.0819 24.229 6.9289V4.1729C24.229 3.0189 23.293 2.0829 22.139 2.0829C22.14 2.0829 16.781 2.0719 14.044 2.0669C13.439 2.0659 12.858 2.3059 12.43 2.7329C12.002 3.1609 11.762 3.7409 11.762 4.3469C11.765 8.6829 11.782 10.6819 11.797 11.6039ZM11.78 22.9629V25.5579C11.78 25.9509 12.099 26.2699 12.492 26.2699C12.885 26.2699 13.204 25.9509 13.204 25.5579V22.9629C13.204 22.5699 12.885 22.2509 12.492 22.2509C12.099 22.2509 11.78 22.5699 11.78 22.9629ZM12.955 11.7469C13.012 11.7899 13.063 11.8419 13.105 11.8999C13.043 11.8129 12.989 11.7729 12.955 11.7469ZM12.574 11.6059C12.707 11.6149 12.829 11.6589 12.932 11.7309C12.741 11.5949 12.612 11.6079 12.574 11.6059Z" fill="url(#paint0_linear_237_553)"/>
<defs>
<linearGradient id="paint0_linear_237_553" x1="16" y1="2.06689" x2="16" y2="30.0669" gradientUnits="userSpaceOnUse">
<stop stop-color="#003B83"/>
<stop offset="1" stop-color="#619EE8"/>
</linearGradient>
</defs>
</svg>
