<svg width="32" height="32" viewBox="0 0 32 32" fill="none" xmlns="http://www.w3.org/2000/svg">
<path fill-rule="evenodd" clip-rule="evenodd" d="M2 22.584C2 26.7179 5.357 30.075 9.491 30.075H22.509C26.643 30.075 30 26.7179 30 22.584V9.56595C30 5.43195 26.643 2.07495 22.509 2.07495H9.491C5.357 2.07495 2 5.43195 2 9.56595V12.391C2 12.933 2.44 13.373 2.982 13.373C3.525 13.373 3.965 12.933 3.965 12.391V9.56595C3.965 6.51595 6.441 4.03995 9.491 4.03995H22.509C25.559 4.03995 28.035 6.51595 28.035 9.56595V22.584C28.035 25.6339 25.559 28.11 22.509 28.11H9.491C6.441 28.11 3.965 25.6339 3.965 22.584C3.965 22.042 3.525 21.601 2.982 21.601C2.44 21.601 2 22.042 2 22.584ZM16 10.18C12.611 10.18 9.86 12.932 9.86 16.321C9.86 19.71 12.611 22.461 16 22.461C19.389 22.461 22.14 19.71 22.14 16.321C22.14 12.932 19.389 10.18 16 10.18ZM16 11.654C18.576 11.654 20.667 13.745 20.667 16.321C20.667 18.896 18.576 20.9869 16 20.9869C13.424 20.9869 11.333 18.896 11.333 16.321C11.333 13.745 13.424 11.654 16 11.654ZM2 15.338V19.268C2 19.81 2.44 20.25 2.982 20.25C3.525 20.25 3.965 19.81 3.965 19.268V15.338C3.965 14.796 3.525 14.356 2.982 14.356C2.44 14.356 2 14.796 2 15.338ZM23.614 5.75895C22.258 5.75895 21.158 6.85995 21.158 8.21495C21.158 9.57095 22.258 10.671 23.614 10.671C24.97 10.671 26.07 9.57095 26.07 8.21495C26.07 6.85995 24.97 5.75895 23.614 5.75895ZM23.614 7.23295C24.156 7.23295 24.596 7.67295 24.596 8.21495C24.596 8.75795 24.156 9.19795 23.614 9.19795C23.072 9.19795 22.632 8.75795 22.632 8.21495C22.632 7.67295 23.072 7.23295 23.614 7.23295Z" fill="url(#paint0_linear_237_550)"/>
<defs>
<linearGradient id="paint0_linear_237_550" x1="16" y1="2.07495" x2="16" y2="30.075" gradientUnits="userSpaceOnUse">
<stop offset="0.178125" stop-color="#FD274D"/>
<stop offset="0.688541" stop-color="#FFE500"/>
<stop offset="0.891666" stop-color="#8200A2" stop-opacity="0.6"/>
</linearGradient>
</defs>
</svg>
