<svg width="25" height="24" viewBox="0 0 25 24" fill="none" xmlns="http://www.w3.org/2000/svg">
<path d="M12.9517 24C9.67353 24 9.28708 23.9827 8.00779 23.9268C7.01017 23.8941 6.02546 23.6916 5.09608 23.328C4.30076 23.0189 3.57849 22.5481 2.97515 21.9454C2.3718 21.3427 1.90056 20.6213 1.59136 19.827C1.24129 18.8956 1.05248 17.9115 1.033 16.9168C0.958374 15.642 0.958374 15.2242 0.958374 11.976C0.958374 8.69328 0.975698 8.31005 1.033 7.03926C1.05291 6.04594 1.24171 5.06322 1.59136 4.13307C1.90021 3.33777 2.37176 2.61554 2.97591 2.01249C3.58006 1.40945 4.30351 0.938843 5.10007 0.630738C6.03108 0.27971 7.01547 0.0906776 8.01046 0.0718562C9.28308 -1.33843e-07 9.70152 0 12.9517 0C16.2565 0 16.6363 0.0172986 17.8956 0.0718562C18.8924 0.0904856 19.8812 0.279441 20.814 0.630738C21.6104 0.9392 22.3336 1.40993 22.9377 2.01293C23.5418 2.61593 24.0135 3.33798 24.3227 4.13307C24.6785 5.07784 24.8691 6.07585 24.8837 7.08317C24.9584 8.35795 24.9584 8.77445 24.9584 12.0213C24.9584 15.2681 24.9397 15.6939 24.8837 16.9541C24.8638 17.9497 24.6746 18.9347 24.3241 19.8669C24.0141 20.6618 23.5419 21.3836 22.9377 21.9865C22.3334 22.5894 21.6102 23.0603 20.814 23.3693C19.8812 23.7179 18.8964 23.9069 17.901 23.9268C16.6283 24 16.2112 24 12.9517 24ZM12.9064 2.10645C9.64688 2.10645 9.3084 2.12242 8.03578 2.17964C7.27573 2.18956 6.52302 2.32954 5.81035 2.59348C5.29054 2.79244 4.81826 3.09795 4.42394 3.49033C4.02962 3.8827 3.72201 4.35324 3.52095 4.87159C3.25443 5.59015 3.11451 6.34997 3.10651 7.11643C3.03589 8.40585 3.03589 8.74385 3.03589 11.976C3.03589 15.1697 3.04788 15.5569 3.10651 16.8383C3.11851 17.5968 3.25843 18.3486 3.52095 19.0605C3.92872 20.1078 4.76026 20.9355 5.81168 21.3373C6.52343 21.6029 7.276 21.743 8.03578 21.7512C9.32573 21.8257 9.66554 21.8257 12.9064 21.8257C16.1753 21.8257 16.5137 21.8097 17.7757 21.7512C18.5358 21.742 19.2887 21.602 20.0011 21.3373C20.5182 21.1368 20.9878 20.8311 21.3801 20.4396C21.7724 20.0481 22.0788 19.5794 22.2799 19.0632C22.5464 18.3446 22.6863 17.5835 22.6943 16.817H22.709C22.7663 15.5449 22.7663 15.2056 22.7663 11.9548C22.7663 8.70393 22.7516 8.36194 22.6943 7.09115C22.6822 6.33328 22.5421 5.58288 22.2799 4.87159C22.0793 4.35469 21.773 3.88517 21.3807 3.49295C20.9884 3.10073 20.5185 2.7944 20.0011 2.59348C19.2888 2.32825 18.5359 2.18824 17.7757 2.17964C16.4871 2.10645 16.1499 2.10645 12.9064 2.10645ZM12.9517 18.1224C11.7332 18.1232 10.5417 17.7631 9.52813 17.0877C8.51453 16.4123 7.72429 15.4519 7.25736 14.328C6.79043 13.204 6.66778 11.9671 6.90493 10.7735C7.14207 9.57999 7.72836 8.48349 8.58964 7.6227C9.45092 6.76192 10.5485 6.17553 11.7436 5.93769C12.9386 5.69985 14.1775 5.82125 15.3034 6.28654C16.4294 6.75182 17.3919 7.54009 18.0691 8.55164C18.7464 9.5632 19.108 10.7526 19.1083 11.9694C19.1062 13.5997 18.457 15.1627 17.3031 16.316C16.1491 17.4693 14.5844 18.1189 12.9517 18.1224ZM12.9517 7.97472C12.161 7.97472 11.3881 8.20885 10.7307 8.64749C10.0732 9.08614 9.56083 9.70961 9.25824 10.4391C8.95566 11.1685 8.87649 11.9712 9.03075 12.7455C9.185 13.5199 9.56576 14.2312 10.1249 14.7895C10.684 15.3478 11.3963 15.728 12.1718 15.882C12.9473 16.0361 13.7511 15.957 14.4816 15.6549C15.2121 15.3527 15.8365 14.8411 16.2757 14.1846C16.715 13.5281 16.9495 12.7563 16.9495 11.9667C16.947 10.9087 16.525 9.89478 15.7758 9.14667C15.0267 8.39855 14.0112 7.97718 12.9517 7.97472ZM19.3482 7.02595C19.1595 7.02525 18.9728 6.98745 18.7988 6.91472C18.6248 6.84198 18.4668 6.73574 18.3339 6.60204C18.0655 6.33203 17.9155 5.9666 17.917 5.58616C17.9184 5.20572 18.0711 4.84142 18.3415 4.5734C18.6119 4.30538 18.9778 4.15561 19.3588 4.15702C19.7398 4.15843 20.1046 4.31092 20.373 4.58093C20.6414 4.85094 20.7914 5.21636 20.79 5.59681C20.7886 5.97725 20.6359 6.34155 20.3655 6.60957C20.0951 6.87758 19.7292 7.02736 19.3482 7.02595Z" fill="black"/>
</svg>
