<svg width="32" height="32" viewBox="0 0 32 32" fill="none" xmlns="http://www.w3.org/2000/svg">
<path fill-rule="evenodd" clip-rule="evenodd" d="M16.003 27.452C15.266 26.395 14.105 24.705 13.053 23.059C12.776 22.625 12.198 22.498 11.764 22.775C11.33 23.053 11.203 23.63 11.48 24.064C13.14 26.661 15.067 29.367 15.23 29.595C15.261 29.64 15.297 29.683 15.337 29.723C15.402 29.79 15.476 29.844 15.555 29.887C15.692 29.962 15.842 29.999 15.991 30H15.999C16.148 30 16.298 29.965 16.436 29.892C16.516 29.85 16.59 29.796 16.657 29.73C16.697 29.69 16.733 29.647 16.765 29.602C17.013 29.261 21.222 23.454 23.779 18.213C24.968 15.775 25.785 13.443 25.785 11.785C25.785 6.385 21.4 2 16 2C10.6 2 6.215 6.385 6.215 11.785C6.215 13.713 6.221 14.504 7.705 17.363C7.942 17.821 8.506 17.999 8.963 17.762C9.42 17.525 9.599 16.961 9.362 16.503C8.105 14.082 8.082 13.417 8.082 11.785C8.082 7.415 11.63 3.867 16 3.867C20.37 3.867 23.918 7.415 23.918 11.785C23.918 13.237 23.142 15.26 22.101 17.395C20.196 21.3 17.349 25.525 16.003 27.452ZM11.985 21.098C10.935 19.455 11.373 20.264 10.39 18.37C10.153 17.913 9.589 17.734 9.132 17.972C8.675 18.209 8.496 18.773 8.734 19.23C9.769 21.225 9.307 20.372 10.412 22.103C10.689 22.537 11.267 22.664 11.701 22.387C12.135 22.109 12.262 21.532 11.985 21.098ZM16 5.967C13.038 5.967 10.633 8.371 10.633 11.333C10.633 14.295 13.038 16.7 16 16.7C18.962 16.7 21.367 14.295 21.367 11.333C21.367 8.371 18.962 5.967 16 5.967ZM16 7.367C18.189 7.367 19.967 9.144 19.967 11.333C19.967 13.523 18.189 15.3 16 15.3C13.811 15.3 12.033 13.523 12.033 11.333C12.033 9.144 13.811 7.367 16 7.367Z" fill="url(#paint0_linear_237_562)"/>
<defs>
<linearGradient id="paint0_linear_237_562" x1="16" y1="2" x2="16" y2="30" gradientUnits="userSpaceOnUse">
<stop stop-color="#26313F"/>
<stop offset="1" stop-color="#4172AD"/>
</linearGradient>
</defs>
</svg>
