<svg width="114" height="119" viewBox="0 0 114 119" fill="none" xmlns="http://www.w3.org/2000/svg">
<path d="M112.791 7.78802C111.991 5.09802 109.459 0.508021 101.485 0.00902126C99.6613 -0.0969787 92.2643 0.48702 83.5413 15.426L52.2993 15.389H52.2953C51.7753 15.389 51.2783 15.515 50.8363 15.743C50.4803 15.913 50.1543 16.152 49.8743 16.448L0.895325 68.524C-0.352675 69.85 -0.287675 71.936 1.03833 73.185L47.9223 117.283C48.5573 117.881 49.3703 118.178 50.1803 118.178C51.0573 118.178 51.9333 117.829 52.5803 117.141L101.398 65.239C102.131 64.577 102.541 63.606 102.478 62.588L100.641 33.192C109.904 25.526 114.968 15.115 112.791 7.78802ZM50.0373 110.222L7.95433 70.64L53.7183 21.983L80.0793 22.014C78.7813 24.743 77.4663 27.829 76.1473 31.271C73.1723 31.058 70.1043 32.035 68.0173 34.255C64.2153 38.296 64.4093 44.68 68.4523 48.488C70.3283 50.253 72.7773 51.222 75.3503 51.222C78.1163 51.222 80.7913 50.066 82.6863 48.051C84.5283 46.094 85.4973 43.533 85.4143 40.845C85.3323 38.158 84.2083 35.663 82.2493 33.821C81.8763 33.47 81.4573 33.186 81.0373 32.905C82.5193 29.219 84.1953 25.503 85.9743 22.02L93.3383 22.029L95.8093 61.559L50.0373 110.222ZM80.3603 41C80.4003 42.339 79.9183 43.613 79.0013 44.587C77.1673 46.533 73.8673 46.635 71.9223 44.804C69.9103 42.91 69.8133 39.731 71.7043 37.722C72.4223 36.958 73.3323 36.452 74.3323 36.247C73.8703 37.579 73.4073 38.945 72.9463 40.376C72.5163 41.707 73.2483 43.132 74.5783 43.56C74.8363 43.643 75.0973 43.684 75.3533 43.684C76.4223 43.684 77.4163 43.001 77.7603 41.93C78.1793 40.631 78.6493 39.28 79.1403 37.912C79.8823 38.777 80.3243 39.846 80.3603 41ZM99.7253 18.532C99.6163 16.797 98.1783 15.444 96.4393 15.441L89.6703 15.433C93.5683 9.17902 97.6613 4.83102 101.169 5.06002C104.91 5.29302 107.189 6.69602 107.941 9.22902C109.152 13.308 106.491 20.354 100.233 26.661L99.7253 18.532Z" fill="#26313F"/>
<path d="M47.0644 38.631C46.6434 38.239 45.9744 38.255 45.5754 38.678C45.1764 39.1 45.1964 39.768 45.6204 40.168L78.6354 71.222C78.8384 71.412 79.0974 71.508 79.3574 71.508C79.6374 71.508 79.9174 71.395 80.1244 71.176C80.5244 70.753 80.5034 70.086 80.0794 69.686L47.0644 38.631Z" fill="#26313F"/>
<path d="M28.7436 68.759L29.8239 67.6005C30.1039 67.8398 30.359 68.012 30.5891 68.1172C30.8309 68.2333 31.0968 68.2297 31.3868 68.1063C31.6885 67.9939 32.0576 67.7037 32.4941 67.2356L38.7631 60.513C39.0577 60.1971 39.3472 59.8983 39.6317 59.6166C39.9279 59.3459 40.1528 59.14 40.3064 58.9987C40.1082 58.8359 39.8633 58.6293 39.5715 58.3791C39.2907 58.1172 39.0805 57.9321 38.9408 57.8238L40.2012 56.4723C41.0429 57.2353 41.8792 58.0042 42.71 58.779C43.5408 59.5537 44.3771 60.3226 45.2188 61.0857C46.2595 62.0342 47.0455 62.986 47.577 63.941C48.1084 64.896 48.3225 65.8395 48.2192 66.7714C48.1159 67.7033 47.6161 68.6264 46.7197 69.5407C46.2497 70.0212 45.6904 70.3747 45.0417 70.6012C44.4047 70.8385 43.6998 70.9141 42.927 70.8278C42.1659 70.7525 41.3474 70.4924 40.4715 70.0476C40.6065 70.3485 40.6811 70.7025 40.6953 71.1095C40.7213 71.5275 40.7012 71.9244 40.635 72.3003L40.3142 74.2983C40.2007 74.9362 40.1342 75.4649 40.1149 75.8845C40.0956 76.304 40.1309 76.665 40.2207 76.9675C40.3214 77.2584 40.495 77.5297 40.7415 77.7814L39.6613 78.9399L36.7651 76.2392C36.6963 75.8906 36.6876 75.4777 36.7388 75.0005C36.8127 74.5224 36.9072 73.9871 37.0223 73.3944L37.6876 70.0768C37.7537 69.701 37.8047 69.3765 37.8404 69.1036C37.8879 68.8416 37.9077 68.5975 37.8998 68.3713C37.7125 68.1968 37.5546 68.0494 37.4258 67.9294C37.2971 67.8094 37.1508 67.673 36.987 67.5202L35.2357 69.3983C34.9301 69.726 34.6351 70.0306 34.3506 70.3122C34.0661 70.5939 33.8412 70.7998 33.676 70.9301C33.8156 71.0385 33.9849 71.1854 34.1838 71.3709C34.3936 71.5447 34.5922 71.7189 34.7794 71.8935C34.9892 72.0673 35.1351 72.1924 35.217 72.2688L33.9567 73.6203L28.7436 68.759ZM39.008 67.0421C39.6633 67.6532 40.2772 68.0506 40.8496 68.2344C41.433 68.4064 41.9925 68.3813 42.5281 68.1588C43.0864 67.9355 43.6437 67.5255 44.2002 66.9287C44.724 66.367 45.0454 65.8464 45.1645 65.3667C45.2946 64.8754 45.2959 64.4282 45.1686 64.0251C45.064 63.6212 44.8934 63.2762 44.657 62.9902C44.4315 62.6924 44.231 62.4616 44.0555 62.298C43.8098 62.0688 43.5719 61.9017 43.3418 61.7965C43.1117 61.6913 42.8571 61.6945 42.578 61.8062C42.2989 61.9178 41.9683 62.1784 41.5864 62.588L38.231 66.1862C38.3488 66.318 38.467 66.461 38.5856 66.6153C38.7151 66.758 38.8559 66.9002 39.008 67.0421ZM36.1665 84.049L37.2304 82.9081C37.558 83.2136 37.8521 83.3675 38.1125 83.3697C38.3847 83.3829 38.6529 83.2829 38.9172 83.0699C39.1822 82.8796 39.4566 82.6322 39.7403 82.328L46.6639 74.9033C46.8604 74.6927 47.0845 74.4641 47.3362 74.2176C47.5989 73.9593 47.862 73.7124 48.1254 73.4768C47.9273 73.3139 47.694 73.1183 47.4257 72.8899C47.1683 72.6499 46.9697 72.4757 46.8301 72.3673L48.0741 71.0333C48.624 71.5462 49.1077 71.9425 49.525 72.2223C49.954 72.513 50.312 72.7155 50.599 72.8301C50.8978 72.9555 51.1208 73.0213 51.2682 73.0274L52.1283 73.8295C52.0425 73.9683 51.9237 74.1309 51.7717 74.3174C51.6307 74.4921 51.5169 74.6376 51.4304 74.7538C52.1673 74.7847 52.8001 74.9154 53.3289 75.146C53.8694 75.3875 54.3211 75.6774 54.6838 76.0157C55.3859 76.6704 55.8311 77.4246 56.0194 78.2784C56.2194 79.1431 56.1547 80.0454 55.8253 80.9852C55.5075 81.9359 54.9285 82.8617 54.0883 83.7628C53.2154 84.6989 52.2483 85.3723 51.1872 85.7829C50.137 86.1819 49.0878 86.2864 48.0397 86.0966C47.0033 85.9177 46.0463 85.4191 45.1686 84.6007C44.8527 84.306 44.5987 84.0036 44.4068 83.6933C44.2156 83.4057 44.047 83.1172 43.9011 82.828L42.3298 84.513C42.177 84.6768 41.9584 84.8996 41.6739 85.1812C41.3902 85.4854 41.1111 85.7612 40.8367 86.0085C41.0458 86.1597 41.2669 86.3331 41.5002 86.5287C41.7225 86.7361 41.8922 86.8943 42.0092 87.0034L40.7652 88.3374L36.1665 84.049ZM46.1154 83.0223C46.6646 83.5126 47.2273 83.742 47.8036 83.7105C48.4024 83.6783 48.995 83.4652 49.5812 83.0711C50.1674 82.6771 50.7279 82.1934 51.2626 81.62C51.7645 81.0817 52.1749 80.5127 52.4935 79.9129C52.8122 79.3131 52.9675 78.7359 52.9595 78.1815C52.9623 77.6154 52.7301 77.1254 52.2629 76.7115C51.9594 76.4504 51.6193 76.2755 51.2427 76.1868C50.8769 76.0863 50.503 76.0768 50.1209 76.158C49.7827 76.5208 49.4444 76.8835 49.1061 77.2463C48.7788 77.5973 48.4514 77.9484 48.124 78.2994C47.7967 78.6505 47.4639 79.0074 47.1256 79.3701C46.7982 79.7212 46.4654 80.0781 46.1271 80.4408C45.7998 80.7919 45.467 81.1488 45.1287 81.5115C45.181 81.7135 45.2915 81.9587 45.46 82.2471C45.6286 82.5356 45.8471 82.794 46.1154 83.0223Z" fill="#4172AD"/>
</svg>
