<svg width="32" height="32" viewBox="0 0 32 32" fill="none" xmlns="http://www.w3.org/2000/svg">
<path fill-rule="evenodd" clip-rule="evenodd" d="M7.52599 7.37389C9.72399 5.13489 12.613 3.92889 16 3.92889C22.697 3.92889 28.133 9.3529 28.133 16.0339C28.133 22.7139 22.697 28.1379 16 28.1379C13.614 28.1379 11.389 27.4499 9.51199 26.2609C9.27499 26.1109 8.98299 26.0759 8.71699 26.1639L4.40899 27.5969L5.84499 23.2989C5.93399 23.0339 5.89799 22.7419 5.74799 22.5059C4.56899 20.6539 3.86699 19.3189 3.86699 16.9649C3.86699 16.4509 3.44799 16.0339 2.93299 16.0339C2.41799 16.0339 1.99999 16.4509 1.99999 16.9649C1.99999 19.5749 2.69499 21.1339 3.93499 23.1279L2.04799 28.7739C1.93599 29.1089 2.02299 29.4779 2.27299 29.7269C2.52299 29.9769 2.89299 30.0639 3.22899 29.9519L8.89499 28.0679C10.978 29.2949 13.407 29.9999 16 29.9999C23.727 29.9999 30 23.7419 30 16.0339C30 8.3249 23.727 2.06689 16 2.06689C12.078 2.06689 8.73799 3.47789 6.19199 6.07089C5.83199 6.43789 5.83799 7.02789 6.20599 7.38789C6.57399 7.74689 7.16499 7.74089 7.52599 7.37389ZM15.145 12.4309L15.15 12.4259C15.809 11.7689 15.809 10.7019 15.15 10.0449L13.753 8.6519C13.095 7.9949 12.025 7.9949 11.366 8.6519C11.366 8.6519 8.72599 11.2849 8.65999 11.3509C8.26299 11.7469 8.10799 12.4509 8.38599 13.3869C8.83299 14.8869 10.413 17.2229 12.676 19.4799C14.938 21.7369 17.28 23.3139 18.784 23.7599C19.722 24.0369 20.427 23.8819 20.824 23.4859C20.85 23.4599 23.269 21.0479 23.269 21.0479C23.927 20.3909 23.927 19.3239 23.269 18.6669L21.872 17.2729C21.213 16.6159 20.144 16.6159 19.485 17.2729L19.98 18.4659L19.484 17.2749L19.374 17.3839C19.248 17.5099 19.076 17.5809 18.897 17.5809C18.717 17.5809 18.546 17.5099 18.419 17.3839L14.777 13.7509C14.513 13.4879 14.513 13.0609 14.777 12.7979L15.145 12.4309ZM14.155 11.4439L13.787 11.8099C12.977 12.6189 12.977 13.9299 13.787 14.7389L17.429 18.3709C17.818 18.7599 18.346 18.9779 18.897 18.9779C19.447 18.9779 19.975 18.7599 20.364 18.3709C20.426 18.3099 20.474 18.2619 20.474 18.2619L19.98 18.4659L20.475 18.2609C20.587 18.1489 20.77 18.1489 20.882 18.2609L22.279 19.6539C22.391 19.7659 22.391 19.9479 22.279 20.0599C22.279 20.0599 19.86 22.4729 19.834 22.4989C19.786 22.5469 19.703 22.5159 19.607 22.5079C19.328 22.4839 18.991 22.3749 18.608 22.2039C17.256 21.6039 15.443 20.2649 13.666 18.4929C11.889 16.7199 10.548 14.9109 9.94499 13.5629C9.77499 13.1799 9.66499 12.8439 9.64099 12.5659C9.63299 12.4699 9.60099 12.3879 9.64999 12.3389C9.71599 12.2729 12.356 9.63889 12.356 9.63889C12.469 9.52689 12.651 9.52689 12.763 9.63889L14.16 11.0329C14.272 11.1449 14.272 11.3269 14.16 11.4389L14.155 11.4439ZM4.39199 7.87189C4.39199 7.87189 1.99999 9.80389 1.99999 14.1709C1.99999 14.6849 2.41799 15.1019 2.93299 15.1019C3.44799 15.1019 3.86699 14.6849 3.86699 14.1709C3.86699 10.8189 5.59299 9.29689 5.59299 9.29689C5.98699 8.96689 6.03799 8.37889 5.70699 7.98489C5.37499 7.59189 4.78599 7.54089 4.39199 7.87189Z" fill="url(#paint0_linear_237_559)"/>
<defs>
<linearGradient id="paint0_linear_237_559" x1="15.9999" y1="2.06689" x2="15.9999" y2="30" gradientUnits="userSpaceOnUse">
<stop stop-color="#2D860E"/>
<stop offset="1" stop-color="#55DB25"/>
</linearGradient>
</defs>
</svg>
